#!OML:ASF Y:\EmotionMaleHayes\Project 1\Capture day 1\Session 1\Male1.ASF
:FULLY-SPECIFIED
:DEGREES
487
root -16.5759 17.0343 0.762392 267.623 86.5046 270.237
lowerback 6.50157 0.610801 2.16789
upperback 3.82018 1.04266 1.35305
thorax 0.303234 0.588277 0.111311
lowerneck -25.4364 3.06739 4.42077
upperneck 29.135 3.46399 -1.59429
head 14.3876 1.86695 -0.688921
rclavicle 3.49116e-015 1.45113e-014
rhumerus 48.6874 18.3448 -35.0851
rradius 41.522
rwrist -3.42636
rhand -0.234345 -29.3922
rfingers 7.12502
rthumb 25.3659 -57.725
lclavicle 3.49116e-015 1.45113e-014
lhumerus 43.1272 -17.8446 28.2343
lradius 42.888
lwrist 6.23557
lhand -7.70273 -22.4016
lfingers 7.12502
lthumb 18.1949 6.76746
rfemur 14.02 -6.45446 16.1366
rtibia 5.72642
rfoot -17.2342 -3.41397
rtoes 2.85863
lfemur -3.36573 5.52101 -0.523463
ltibia 54.1928
lfoot -5.58238 -1.52187
ltoes 0.199333
488
root -16.5256 17.0352 0.742019 269.717 86.4081 272.32
lowerback 7.22021 0.677708 2.62932
upperback 3.50066 1.1845 1.25083
thorax -0.40969 0.655038 -0.276524
lowerneck -25.3288 2.95874 4.31626
upperneck 29.3624 3.29942 -1.37499
head 14.4519 1.8249 -0.61385
rclavicle -6.38596e-015 -3.08116e-015
rhumerus 48.2855 18.3326 -35.764
rradius 41.217
rwrist -3.19063
rhand -0.161037 -29.2333
rfingers 7.12502
rthumb 25.4361 -57.5562
lclavicle -6.38596e-015 -3.08116e-015
lhumerus 43.0427 -18.3395 28.0512
lradius 43.0313
lwrist 6.30207
lhand -7.78187 -22.4865
lfingers 7.12502
lthumb 18.1187 6.68959
rfemur 14.2023 -6.239 16.249
rtibia 5.64535
rfoot -17.2467 -3.60096
rtoes 1.05475
lfemur -4.27672 6.24676 -0.207486
ltibia 53.7518
lfoot -6.62969 -0.593028
ltoes -0.970316
489
root -16.4765 17.0386 0.720483 269.909 86.5344 272.47
lowerback 6.87587 0.707005 2.64807
upperback 3.90868 1.21324 1.22374
thorax 0.20332 0.684427 -0.305869
lowerneck -25.4416 2.93791 4.31145
upperneck 28.9963 3.26794 -1.46795
head 14.3153 1.78681 -0.658492
rclavicle 1.8195e-014 1.69961e-014
rhumerus 48.6953 17.6392 -35.9486
rradius 40.928
rwrist -3.09889
rhand -0.264914 -29.1366
rfingers 7.12502
rthumb 25.3366 -57.4736
lclavicle 1.8195e-014 1.69961e-014
lhumerus 43.3932 -17.8191 28.0328
lradius 43.0155
lwrist 6.25809
lhand -7.99882 -22.4908
lfingers 7.12502
lthumb 17.91 6.70449
rfemur 14.3924 -5.81856 16.2045
rtibia 5.51342
rfoot -17.3774 -3.93707
rtoes 1.17162
lfemur -5.22489 6.79316 -0.266994
ltibia 52.9566
lfoot -7.5377 0.699652
ltoes -5.27763
490
root -16.4343 17.0429 0.699063 269.732 86.7381 272.22
lowerback 7.17134 0.763356 2.5478
upperback 3.8531 1.29355 1.18237
thorax -0.0169022 0.720592 -0.303729
lowerneck -25.1545 2.8654 4.40304
upperneck 28.822 3.17814 -1.59418
head 14.1802 1.74154 -0.746112
rclavicle 3.15571e-015 -6.60959e-015
rhumerus 48.5478 17.5425 -35.8898
rradius 40.907
rwrist -3.27928
rhand -0.59547 -29.2194
rfingers 7.12502
rthumb 25.0199 -57.6009
lclavicle 3.15571e-015 -6.60959e-015
lhumerus 43.5306 -17.8635 28.1212
lradius 42.9464
lwrist 6.27432
lhand -8.21272 -22.4708
lfingers 7.12502
lthumb 17.7041 6.74324
rfemur 14.5287 -5.51101 16.0256
rtibia 5.38443
rfoot -17.4399 -4.20803
rtoes 1.19425
lfemur -6.23371 7.15125 -0.47773
ltibia 52.4287
lfoot -8.83103 1.40759
ltoes -3.70169
491
root -16.3916 17.0437 0.674223 271.403 86.7945 273.788
lowerback 7.29206 0.803629 2.65012
upperback 3.88293 1.35876 1.15825
thorax -0.0481104 0.755561 -0.392209
lowerneck -25.0144 2.86513 4.31498
upperneck 28.673 3.15385 -1.41326
head 14.0799 1.74692 -0.664754
rclavicle -2.168e-014 -2.19657e-014
rhumerus 48.5752 17.3305 -36.0819
rradius 40.7526
rwrist -3.1976
rhand -0.713594 -29.187
rfingers 7.12502
rthumb 24.9067 -57.5842
lclavicle -2.168e-014 -2.19657e-014
lhumerus 43.6537 -17.7622 28.0668
lradius 42.8731
lwrist 6.37346
lhand -8.22901 -22.5061
lfingers 7.12502
lthumb 17.6885 6.70934
rfemur 14.6133 -5.41188 15.8993
rtibia 5.27003
rfoot -17.3349 -4.29732
rtoes 0.705176
lfemur -7.18052 7.62612 -0.483588
ltibia 51.5743
lfoot -9.90858 2.1593
ltoes -3.25773
492
root -16.3432 17.045 0.647016 273.654 86.6763 275.961
lowerback 7.3529 0.856211 2.90586
upperback 3.98732 1.45 1.19749
thorax 0.0342958 0.808577 -0.501019
lowerneck -25.1336 2.82969 4.16642
upperneck 28.7072 3.0923 -1.2223
head 14.1106 1.73068 -0.573359
rclavicle -1.37907e-015 8.24956e-015
rhumerus 48.6704 16.9585 -36.3823
rradius 40.5169
rwrist -2.97478
rhand -0.775441 -29.1591
rfingers 7.12502
rthumb 24.8474 -57.5645
lclavicle -1.37907e-015 8.24956e-015
lhumerus 43.8155 -17.6375 27.9578
lradius 42.8822
lwrist 6.52839
lhand -8.2287 -22.4003
lfingers 7.12502
lthumb 17.6888 6.81512
rfemur 14.738 -5.25995 15.9775
rtibia 5.16793
rfoot -17.3086 -4.40454
rtoes 1.31725
lfemur -7.98636 8.16205 -0.282655
ltibia 50.4189
lfoot -10.8688 2.87586
ltoes -5.49338
493
root -16.2904 17.0469 0.618281 275.419 86.6089 277.672
lowerback 7.44557 0.897153 3.04074
upperback 4.08392 1.51969 1.24368
thorax 0.0875279 0.848727 -0.534312
lowerneck -25.2614 2.80942 4.18212
upperneck 28.7655 3.0744 -1.29396
head 14.1637 1.71326 -0.607032
rclavicle 5.1684e-015 -2.64384e-014
rhumerus 48.8049 16.6959 -36.503
rradius 40.3544
rwrist -2.88539
rhand -1.10646 -29.5233
rfingers 7.12502
rthumb 24.5302 -57.9721
lclavicle 5.1684e-015 -2.64384e-014
lhumerus 43.9167 -17.6089 27.7359
lradius 42.9841
lwrist 6.77392
lhand -8.47878 -22.2169
lfingers 7.12502
lthumb 17.4481 7.02008
rfemur 14.863 -4.99781 16.0553
rtibia 5.17969
rfoot -17.4528 -4.63641
rtoes 2.41175
lfemur -8.6817 8.57372 -0.192004
ltibia 49.0447
lfoot -11.6584 3.44908
ltoes -8.55755
494
root -16.2411 17.0479 0.590039 275.492 86.8279 277.666
lowerback 7.47771 0.882107 2.89003
upperback 4.16094 1.49153 1.19985
thorax 0.145423 0.835124 -0.492654
lowerneck -25.1316 2.81545 4.17578
upperneck 28.6237 3.09911 -1.33121
head 14.0765 1.71647 -0.618249
rclavicle -1.03368e-014 5.96354e-015
rhumerus 48.965 16.512 -36.7639
rradius 40.1544
rwrist -2.64533
rhand -1.39721 -29.8093
rfingers 7.12502
rthumb 24.2514 -58.2956
lclavicle -1.03368e-014 5.96354e-015
lhumerus 43.8982 -17.5652 27.4395
lradius 43.1297
lwrist 7.03509
lhand -8.80235 -22.1498
lfingers 7.12502
lthumb 17.1367 7.11445
rfemur 14.9672 -4.93081 15.7561
rtibia 5.21042
rfoot -17.5574 -4.84972
rtoes 2.35866
lfemur -9.44426 8.76914 -0.477964
ltibia 47.5677
lfoot -12.1419 3.83192
ltoes -9.62345
495
root -16.1943 17.0486 0.560041 276.619 87.0486 278.711
lowerback 7.49777 0.90071 2.79525
upperback 4.23397 1.51054 1.11926
thorax 0.209915 0.846109 -0.523145
lowerneck -24.912 2.74916 4.07085
upperneck 28.4534 3.02932 -1.26309
head 13.9513 1.68467 -0.589635
rclavicle 4.14963e-015 2.5842e-015
rhumerus 49.0246 16.2943 -37.0576
rradius 39.9377
rwrist -2.51405
rhand -1.61291 -29.8164
rfingers 7.12502
rthumb 24.0446 -58.3302
lclavicle 4.14963e-015 2.5842e-015
lhumerus 43.9385 -17.3994 27.477
lradius 43.1203
lwrist 6.91068
lhand -8.9235 -22.3
lfingers 7.12502
lthumb 17.0201 6.97436
rfemur 15.077 -4.89475 15.4051
rtibia 5.12859
rfoot -17.5471 -5.01304
rtoes 1.92926
lfemur -10.1868 8.96128 -0.775815
ltibia 45.9203
lfoot -12.498 4.20052
ltoes -10.1938
496
root -16.1451 17.0458 0.525362 279.501 87.0979 281.478
lowerback 7.63361 0.944007 2.8852
upperback 4.24031 1.57918 1.06145
thorax 0.147883 0.882166 -0.640705
lowerneck -24.8645 2.70202 4.00386
upperneck 28.4621 2.97464 -1.2088
head 13.9409 1.66259 -0.567457
rclavicle 3.3048e-015 2.03754e-014
rhumerus 49.0424 16.1532 -37.2565
rradius 39.7669
rwrist -2.60122
rhand -1.92337 -29.8656
rfingers 7.12502
rthumb 23.7469 -58.4184
lclavicle 3.3048e-015 2.03754e-014
lhumerus 43.9994 -17.1966 27.7331
lradius 42.9708
lwrist 6.60477
lhand -8.83663 -22.3699
lfingers 7.12502
lthumb 17.1037 6.89721
rfemur 15.1508 -4.64001 15.3043
rtibia 5.00444
rfoot -17.5788 -5.30058
rtoes 1.62994
lfemur -10.8641 9.17555 -0.902975
ltibia 44.0389
lfoot -12.8323 4.64913
ltoes -9.9394
497
root -16.0949 17.0431 0.490369 280.358 87.0802 282.229
lowerback 7.98746 0.934775 3.06455
upperback 4.12707 1.59319 0.997891
thorax -0.156603 0.886801 -0.81755
lowerneck -24.8029 2.69949 3.95938
upperneck 28.5609 2.95622 -1.07717
head 13.9668 1.67213 -0.510495
rclavicle -3.85145e-015 -7.25564e-015
rhumerus 48.9641 16.1282 -37.5073
rradius 39.6586
rwrist -2.61053
rhand -2.08244 -29.933
rfingers 7.12502
rthumb 23.5943 -58.5055
lclavicle -3.85145e-015 -7.25564e-015
lhumerus 43.9652 -17.196 27.7378
lradius 42.9373
lwrist 6.61683
lhand -8.82335 -22.2234
lfingers 7.12502
lthumb 17.1165 7.04259
rfemur 15.2909 -4.52838 15.2425
rtibia 4.84381
rfoot -17.6335 -5.5299
rtoes 0.314191
lfemur -11.5558 9.21783 -0.960723
ltibia 42.1245
lfoot -13.131 5.08766
ltoes -10.4134
